{"asset":{"version":"2.0","generator":"babylon.js glTF exporter for 3dsmax 2021 v20200618.4"},"scene":0,"scenes":[{"nodes":[0,1,2]}],"nodes":[{"mesh":0,"translation":[-0.7830023,0.0,-0.971002162],"scale":[1.421352,2.9629724,1.421352],"name":"Cove"},{"translation":[4.739702,0.0,0.0527807623],"name":"sun.Target"},{"name":"Default light"}],"meshes":[{"primitives":[{"attributes":{"POSITION":1,"NORMAL":2,"TEXCOORD_0":3},"indices":0,"material":0}],"name":"Cove"}],"accessors":[{"bufferView":0,"componentType":5123,"count":9534,"type":"SCALAR","name":"accessorIndices"},{"bufferView":1,"componentType":5126,"count":9534,"max":[949.254333,501.130249,949.101563],"min":[-949.252563,0.0,-949.3926],"type":"VEC3","name":"accessorPositions"},{"bufferView":1,"byteOffset":114408,"componentType":5126,"count":9534,"type":"VEC3","name":"accessorNormals"},{"bufferView":2,"componentType":5126,"count":9534,"type":"VEC2","name":"accessorUVs"}],"bufferViews":[{"buffer":0,"byteLength":19068,"name":"bufferViewScalar"},{"buffer":0,"byteOffset":19068,"byteLength":228816,"byteStride":12,"name":"bufferViewFloatVec3"},{"buffer":0,"byteOffset":247884,"byteLength":76272,"byteStride":8,"name":"bufferViewFloatVec2"}],"buffers":[{"uri":"Cove.bin","byteLength":324156}],"materials":[{"pbrMetallicRoughness":{"baseColorFactor":[0.841726661,0.841726661,0.841726661,1.0],"metallicFactor":0.0,"roughnessFactor":0.0},"name":"Cove"}]}