{"asset":{"version":"2.0","generator":"babylon.js glTF exporter for 3dsmax 2021 v20200618.4"},"scene":0,"scenes":[{"nodes":[0,1]}],"nodes":[{"mesh":0,"translation":[-0.7830023,0.0,-0.971002162],"scale":[1.421352,2.9629724,1.421352],"name":"Cove"},{"name":"Default light"}],"meshes":[{"primitives":[{"attributes":{"POSITION":1,"NORMAL":2,"TEXCOORD_0":3},"indices":0,"material":0}],"name":"Cove"}],"accessors":[{"bufferView":0,"componentType":5123,"count":7734,"type":"SCALAR","name":"accessorIndices"},{"bufferView":1,"componentType":5126,"count":7734,"max":[983.0169,399.1695,982.863],"min":[-983.0146,0.0,-983.1781],"type":"VEC3","name":"accessorPositions"},{"bufferView":1,"byteOffset":92808,"componentType":5126,"count":7734,"type":"VEC3","name":"accessorNormals"},{"bufferView":2,"componentType":5126,"count":7734,"type":"VEC2","name":"accessorUVs"}],"bufferViews":[{"buffer":0,"byteLength":15468,"name":"bufferViewScalar"},{"buffer":0,"byteOffset":15468,"byteLength":185616,"byteStride":12,"name":"bufferViewFloatVec3"},{"buffer":0,"byteOffset":201084,"byteLength":61872,"byteStride":8,"name":"bufferViewFloatVec2"}],"buffers":[{"uri":"Cove.bin","byteLength":262956}],"materials":[{"pbrMetallicRoughness":{"baseColorFactor":[0.841726661,0.841726661,0.841726661,1.0],"metallicFactor":0.0,"roughnessFactor":0.0},"name":"Cove"}]}