{"asset":{"version":"2.0","generator":"babylon.js glTF exporter for 3dsmax 2021 v20200618.4"},"scene":0,"scenes":[{"nodes":[0,1]}],"nodes":[{"mesh":0,"rotation":[0.7071068,0.0,0.0,0.7071067],"scale":[7.631343,7.631343,7.446721],"name":"Cove_2","extras":{"currentUVSet":"map1"}},{"name":"Default light"}],"meshes":[{"primitives":[{"attributes":{"POSITION":1,"NORMAL":2,"TEXCOORD_0":3},"indices":0,"material":0}],"name":"Cove_2"}],"accessors":[{"bufferView":0,"componentType":5123,"count":17910,"type":"SCALAR","name":"accessorIndices"},{"bufferView":1,"componentType":5126,"count":17910,"max":[10.5660763,10.5660753,2.014591],"min":[-10.5660763,-10.5660753,-9.150213],"type":"VEC3","name":"accessorPositions"},{"bufferView":1,"byteOffset":214920,"componentType":5126,"count":17910,"type":"VEC3","name":"accessorNormals"},{"bufferView":2,"componentType":5126,"count":17910,"type":"VEC2","name":"accessorUVs"}],"bufferViews":[{"buffer":0,"byteLength":35820,"name":"bufferViewScalar"},{"buffer":0,"byteOffset":35820,"byteLength":429840,"byteStride":12,"name":"bufferViewFloatVec3"},{"buffer":0,"byteOffset":465660,"byteLength":143280,"byteStride":8,"name":"bufferViewFloatVec2"}],"buffers":[{"uri":"Cove2.bin","byteLength":608940}],"materials":[{"pbrMetallicRoughness":{"baseColorFactor":[0.721568644,0.721568644,0.721568644,1.0],"metallicFactor":0.0},"name":"Floor"}]}