{"asset":{"version":"2.0","generator":"babylon.js glTF exporter for 3dsmax 2021 v20200618.4"},"scene":0,"scenes":[{"nodes":[0,1,2]}],"nodes":[{"translation":[4.739702,0.0,0.0527807623],"name":"sun.Target"},{"mesh":0,"rotation":[0.7071068,0.0,0.0,0.7071067],"scale":[7.63133955,7.63133955,7.63133955],"name":"Cove_2","extras":{"currentUVSet":"map1"}},{"name":"Default light"}],"meshes":[{"primitives":[{"attributes":{"POSITION":1,"NORMAL":2,"TEXCOORD_0":3},"indices":0,"material":0}],"name":"Cove_2"}],"accessors":[{"bufferView":0,"componentType":5123,"count":17274,"type":"SCALAR","name":"accessorIndices"},{"bufferView":1,"componentType":5126,"count":17274,"max":[10.5660763,10.5660753,2.014591],"min":[-10.5660763,-10.5660753,-9.150213],"type":"VEC3","name":"accessorPositions"},{"bufferView":1,"byteOffset":207288,"componentType":5126,"count":17274,"type":"VEC3","name":"accessorNormals"},{"bufferView":2,"componentType":5126,"count":17274,"type":"VEC2","name":"accessorUVs"}],"bufferViews":[{"buffer":0,"byteLength":34548,"name":"bufferViewScalar"},{"buffer":0,"byteOffset":34548,"byteLength":414576,"byteStride":12,"name":"bufferViewFloatVec3"},{"buffer":0,"byteOffset":449124,"byteLength":138192,"byteStride":8,"name":"bufferViewFloatVec2"}],"buffers":[{"uri":"Cove2.bin","byteLength":587316}],"materials":[{"pbrMetallicRoughness":{"baseColorFactor":[0.841726661,0.841726661,0.841726661,1.0],"metallicFactor":0.0,"roughnessFactor":0.0},"name":"Cove"}]}