{"asset":{"version":"2.0","generator":"babylon.js glTF exporter for 3dsmax 2021 v20200618.4"},"scene":0,"scenes":[{"nodes":[0,1]}],"nodes":[{"mesh":0,"name":"Plane001"},{"name":"Default light"}],"meshes":[{"primitives":[{"attributes":{"POSITION":1,"NORMAL":2,"TEXCOORD_0":3},"indices":0,"material":0}],"name":"Plane001"}],"accessors":[{"bufferView":0,"componentType":5123,"count":96,"type":"SCALAR","name":"accessorIndices"},{"bufferView":1,"componentType":5126,"count":96,"max":[1.27722776,0.0,1.27722776],"min":[-1.27722776,0.0,-1.27722776],"type":"VEC3","name":"accessorPositions"},{"bufferView":1,"byteOffset":1152,"componentType":5126,"count":96,"type":"VEC3","name":"accessorNormals"},{"bufferView":2,"componentType":5126,"count":96,"type":"VEC2","name":"accessorUVs"}],"bufferViews":[{"buffer":0,"byteLength":192,"name":"bufferViewScalar"},{"buffer":0,"byteOffset":192,"byteLength":2304,"byteStride":12,"name":"bufferViewFloatVec3"},{"buffer":0,"byteOffset":2496,"byteLength":768,"byteStride":8,"name":"bufferViewFloatVec2"}],"buffers":[{"uri":"FloorDisc.bin","byteLength":3264}],"materials":[{"pbrMetallicRoughness":{"baseColorTexture":{"index":0},"metallicFactor":0.0,"roughnessFactor":0.450053632},"emissiveTexture":{"index":0},"emissiveFactor":[1.0,1.0,1.0],"name":"Material #27"}],"textures":[{"sampler":0,"source":0,"name":"cat.jpg"}],"images":[{"uri":"./cat.jpg"}],"samplers":[{"magFilter":9729,"minFilter":9987}]}