{"asset":{"version":"2.0","generator":"babylon.js glTF exporter for 3dsmax 2021 v20200618.4"},"scene":0,"scenes":[{"nodes":[0,1,3]}],"nodes":[{"translation":[4.739702,0.0,0.0527807623],"name":"VRaySun001.Target"},{"children":[2],"translation":[-0.560300946,4.76572371,-0.687998652],"name":"HouseFurniture"},{"mesh":0,"translation":[-0.43753776,-2.72113824,-0.00644104],"rotation":[0.7071068,0.0,0.0,0.7071067],"name":"FurnMid"},{"name":"Default light"}],"meshes":[{"primitives":[{"attributes":{"POSITION":1,"NORMAL":2,"TEXCOORD_0":3,"TEXCOORD_1":4},"indices":0,"material":0}],"name":"FurnMid"}],"accessors":[{"bufferView":0,"componentType":5125,"count":568650,"type":"SCALAR","name":"accessorIndices"},{"bufferView":1,"componentType":5126,"count":568650,"max":[2.78362513,5.46973133,-1.63483024],"min":[-1.91775084,-4.79672432,-3.95155931],"type":"VEC3","name":"accessorPositions"},{"bufferView":1,"byteOffset":6823800,"componentType":5126,"count":568650,"type":"VEC3","name":"accessorNormals"},{"bufferView":2,"componentType":5126,"count":568650,"type":"VEC2","name":"accessorUVs"},{"bufferView":2,"byteOffset":4549200,"componentType":5126,"count":568650,"type":"VEC2","name":"accessorUV2s"}],"bufferViews":[{"buffer":0,"byteLength":2274600,"name":"bufferViewScalar"},{"buffer":0,"byteOffset":2274600,"byteLength":13647600,"byteStride":12,"name":"bufferViewFloatVec3"},{"buffer":0,"byteOffset":15922200,"byteLength":9098400,"byteStride":8,"name":"bufferViewFloatVec2"}],"buffers":[{"uri":"FurnMid.bin","byteLength":25020600}],"materials":[{"pbrMetallicRoughness":{"baseColorTexture":{"index":0},"metallicFactor":0.0},"emissiveTexture":{"index":0},"emissiveFactor":[1.0,1.0,1.0],"name":"FurnMid"}],"textures":[{"sampler":0,"source":0,"name":"FurnMid_VRayCompleteMap.jpg"}],"images":[{"uri":"tex/FurnMid_VRayCompleteMap.jpg"}],"samplers":[{"magFilter":9729,"minFilter":9987}]}