{"asset":{"version":"2.0","generator":"babylon.js glTF exporter for 3dsmax 2021 v20200618.4"},"scene":0,"scenes":[{"nodes":[0,1,3]}],"nodes":[{"translation":[4.739702,0.0,0.0527807623],"name":"VRaySun001.Target"},{"children":[2],"translation":[-0.560300946,4.76572371,-0.687998652],"name":"HouseFurniture"},{"mesh":0,"translation":[-0.43753776,-2.75629568,-0.00644104],"rotation":[0.7071068,0.0,0.0,0.7071067],"name":"FurnUpper"},{"name":"Default light"}],"meshes":[{"primitives":[{"attributes":{"POSITION":1,"NORMAL":2,"TEXCOORD_0":3,"TEXCOORD_1":4},"indices":0,"material":0}],"name":"FurnUpper"}],"accessors":[{"bufferView":0,"componentType":5125,"count":330291,"type":"SCALAR","name":"accessorIndices"},{"bufferView":1,"componentType":5126,"count":330291,"max":[2.79377627,5.513112,-4.938942],"min":[-1.91870058,-5.50023174,-7.1734066],"type":"VEC3","name":"accessorPositions"},{"bufferView":1,"byteOffset":3963492,"componentType":5126,"count":330291,"type":"VEC3","name":"accessorNormals"},{"bufferView":2,"componentType":5126,"count":330291,"type":"VEC2","name":"accessorUVs"},{"bufferView":2,"byteOffset":2642328,"componentType":5126,"count":330291,"type":"VEC2","name":"accessorUV2s"}],"bufferViews":[{"buffer":0,"byteLength":1321164,"name":"bufferViewScalar"},{"buffer":0,"byteOffset":1321164,"byteLength":7926984,"byteStride":12,"name":"bufferViewFloatVec3"},{"buffer":0,"byteOffset":9248148,"byteLength":5284656,"byteStride":8,"name":"bufferViewFloatVec2"}],"buffers":[{"uri":"FurnUpper.bin","byteLength":14532804}],"materials":[{"pbrMetallicRoughness":{"baseColorTexture":{"index":0},"metallicFactor":0.0},"emissiveTexture":{"index":0},"emissiveFactor":[1.0,1.0,1.0],"name":"FurnUpper"}],"textures":[{"sampler":0,"source":0,"name":"FurnUpper_VRayCompleteMap.jpg"}],"images":[{"uri":"tex/FurnUpper_VRayCompleteMap.jpg"}],"samplers":[{"magFilter":9729,"minFilter":9987}]}