{"asset":{"version":"2.0","generator":"babylon.js glTF exporter for 3dsmax 2021 v20200618.4"},"scene":0,"scenes":[{"nodes":[0,1,3]}],"nodes":[{"translation":[4.739702,0.0,0.0527807623],"name":"VRaySun001.Target"},{"children":[2],"translation":[-0.560300946,4.76572371,-0.687998652],"name":"HouseFurniture"},{"mesh":0,"translation":[-0.43753776,-2.75629568,-0.00644104],"rotation":[0.7071068,0.0,0.0,0.7071067],"name":"FurnGround"},{"name":"Default light"}],"meshes":[{"primitives":[{"attributes":{"POSITION":1,"NORMAL":2,"TEXCOORD_0":3,"TEXCOORD_1":4},"indices":0,"material":0}],"name":"FurnGround"}],"accessors":[{"bufferView":0,"componentType":5125,"count":329232,"type":"SCALAR","name":"accessorIndices"},{"bufferView":1,"componentType":5126,"count":329232,"max":[2.21580768,5.46054,1.66081524],"min":[-1.91870058,-4.801079,-0.704921067],"type":"VEC3","name":"accessorPositions"},{"bufferView":1,"byteOffset":3950784,"componentType":5126,"count":329232,"type":"VEC3","name":"accessorNormals"},{"bufferView":2,"componentType":5126,"count":329232,"type":"VEC2","name":"accessorUVs"},{"bufferView":2,"byteOffset":2633856,"componentType":5126,"count":329232,"type":"VEC2","name":"accessorUV2s"}],"bufferViews":[{"buffer":0,"byteLength":1316928,"name":"bufferViewScalar"},{"buffer":0,"byteOffset":1316928,"byteLength":7901568,"byteStride":12,"name":"bufferViewFloatVec3"},{"buffer":0,"byteOffset":9218496,"byteLength":5267712,"byteStride":8,"name":"bufferViewFloatVec2"}],"buffers":[{"uri":"FurnGround.bin","byteLength":14486208}],"materials":[{"pbrMetallicRoughness":{"baseColorTexture":{"index":0},"metallicFactor":0.0},"emissiveTexture":{"index":0},"emissiveFactor":[1.0,1.0,1.0],"name":"FurnGround"}],"textures":[{"sampler":0,"source":0,"name":"FurnGround_VRayCompleteMap.jpg"}],"images":[{"uri":"tex/FurnGround_VRayCompleteMap.jpg"}],"samplers":[{"magFilter":9729,"minFilter":9987}]}