{"asset":{"version":"2.0","generator":"babylon.js glTF exporter for 3dsmax 2021 v20200618.4"},"scene":0,"scenes":[{"nodes":[0,1,2]}],"nodes":[{"translation":[4.739702,0.0,0.0527807623],"name":"sun.Target"},{"mesh":0,"scale":[23.4168835,23.4168835,23.4168835],"name":"FloorDisc"},{"name":"Default light"}],"meshes":[{"primitives":[{"attributes":{"POSITION":1,"NORMAL":2,"TEXCOORD_0":3},"indices":0,"material":0}],"name":"FloorDisc"}],"accessors":[{"bufferView":0,"componentType":5123,"count":120,"type":"SCALAR","name":"accessorIndices"},{"bufferView":1,"componentType":5126,"count":120,"max":[1.27722776,0.0,1.27722776],"min":[-1.27722776,0.0,-1.27722776],"type":"VEC3","name":"accessorPositions"},{"bufferView":1,"byteOffset":1440,"componentType":5126,"count":120,"type":"VEC3","name":"accessorNormals"},{"bufferView":2,"componentType":5126,"count":120,"type":"VEC2","name":"accessorUVs"}],"bufferViews":[{"buffer":0,"byteLength":240,"name":"bufferViewScalar"},{"buffer":0,"byteOffset":240,"byteLength":2880,"byteStride":12,"name":"bufferViewFloatVec3"},{"buffer":0,"byteOffset":3120,"byteLength":960,"byteStride":8,"name":"bufferViewFloatVec2"}],"buffers":[{"uri":"FloorDisc.bin","byteLength":4080}],"materials":[{"pbrMetallicRoughness":{"baseColorTexture":{"index":0},"metallicFactor":0.0,"roughnessFactor":0.450053632},"emissiveTexture":{"index":0},"emissiveFactor":[1.0,1.0,1.0],"name":"FloorDiscBaked"}],"textures":[{"sampler":0,"source":0,"name":"FloorDisc_VRayCompleteMap.png"}],"images":[{"uri":"./FloorDisc_VRayCompleteMap.png"}],"samplers":[{"magFilter":9729,"minFilter":9987}]}