{"asset":{"version":"2.0","generator":"babylon.js glTF exporter for 3dsmax 2021 v20200618.4"},"scene":0,"scenes":[{"nodes":[0,4,5]}],"nodes":[{"children":[1,2,3],"translation":[6.10351549E-07,5.63107347,0.0],"name":"TownHouse"},{"mesh":0,"translation":[-0.997839332,-3.62164545,-0.6944397],"name":"G1_Floor_Slab"},{"mesh":1,"translation":[-0.997839332,-3.62164545,-0.6944397],"name":"Glass"},{"mesh":2,"translation":[23.3977852,12.7890158,-14.19111],"name":"sun"},{"translation":[4.739702,0.0,0.0527807623],"name":"sun.Target"},{"name":"Default light"}],"meshes":[{"primitives":[{"attributes":{"POSITION":1,"NORMAL":2,"TEXCOORD_0":3,"TEXCOORD_1":4},"indices":0,"material":0},{"attributes":{"POSITION":6,"NORMAL":7,"TEXCOORD_0":8,"TEXCOORD_1":9},"indices":5,"material":0},{"attributes":{"POSITION":11,"NORMAL":12,"TEXCOORD_0":13,"TEXCOORD_1":14},"indices":10,"material":1},{"attributes":{"POSITION":16,"NORMAL":17,"TEXCOORD_0":18,"TEXCOORD_1":19},"indices":15,"material":0},{"attributes":{"POSITION":21,"NORMAL":22,"TEXCOORD_0":23,"TEXCOORD_1":24},"indices":20,"material":0},{"attributes":{"POSITION":26,"NORMAL":27,"TEXCOORD_0":28,"TEXCOORD_1":29},"indices":25,"material":0},{"attributes":{"POSITION":31,"NORMAL":32,"TEXCOORD_0":33,"TEXCOORD_1":34},"indices":30,"material":2},{"attributes":{"POSITION":36,"NORMAL":37,"TEXCOORD_0":38,"TEXCOORD_1":39},"indices":35,"material":3},{"attributes":{"POSITION":41,"NORMAL":42,"TEXCOORD_0":43,"TEXCOORD_1":44},"indices":40,"material":0},{"attributes":{"POSITION":46,"NORMAL":47,"TEXCOORD_0":48,"TEXCOORD_1":49},"indices":45,"material":0},{"attributes":{"POSITION":51,"NORMAL":52,"TEXCOORD_0":53,"TEXCOORD_1":54},"indices":50,"material":0},{"attributes":{"POSITION":56,"NORMAL":57,"TEXCOORD_0":58,"TEXCOORD_1":59},"indices":55,"material":0},{"attributes":{"POSITION":61,"NORMAL":62,"TEXCOORD_0":63,"TEXCOORD_1":64},"indices":60,"material":4},{"attributes":{"POSITION":66,"NORMAL":67,"TEXCOORD_0":68,"TEXCOORD_1":69},"indices":65,"material":0},{"attributes":{"POSITION":71,"NORMAL":72,"TEXCOORD_0":73,"TEXCOORD_1":74},"indices":70,"material":5},{"attributes":{"POSITION":76,"NORMAL":77,"TEXCOORD_0":78,"TEXCOORD_1":79},"indices":75,"material":0}],"name":"G1_Floor_Slab"},{"primitives":[{"attributes":{"POSITION":81,"NORMAL":82,"TEXCOORD_0":83,"TEXCOORD_1":84},"indices":80,"material":6}],"name":"Glass"},{"primitives":[{"attributes":{"POSITION":86,"NORMAL":87,"TEXCOORD_0":88},"indices":85}],"name":"sun"}],"accessors":[{"bufferView":0,"componentType":5125,"count":36,"type":"SCALAR","name":"accessorIndices"},{"bufferView":1,"componentType":5126,"count":36,"max":[-0.224905387,0.7015701,5.802427],"min":[-1.16540527,0.464570135,5.766426],"type":"VEC3","name":"accessorPositions"},{"bufferView":1,"byteOffset":432,"componentType":5126,"count":36,"type":"VEC3","name":"accessorNormals"},{"bufferView":2,"componentType":5126,"count":36,"type":"VEC2","name":"accessorUVs"},{"bufferView":2,"byteOffset":288,"componentType":5126,"count":36,"type":"VEC2","name":"accessorUV2s"},{"bufferView":0,"byteOffset":144,"componentType":5125,"count":729,"type":"SCALAR","name":"accessorIndices"},{"bufferView":1,"byteOffset":864,"componentType":5126,"count":729,"max":[2.79683638,8.013572,5.95144129],"min":[-2.40916014,-2.00942874,-5.264564],"type":"VEC3","name":"accessorPositions"},{"bufferView":1,"byteOffset":9612,"componentType":5126,"count":729,"type":"VEC3","name":"accessorNormals"},{"bufferView":2,"byteOffset":576,"componentType":5126,"count":729,"type":"VEC2","name":"accessorUVs"},{"bufferView":2,"byteOffset":6408,"componentType":5126,"count":729,"type":"VEC2","name":"accessorUV2s"},{"bufferView":0,"byteOffset":3060,"componentType":5125,"count":5991,"type":"SCALAR","name":"accessorIndices"},{"bufferView":1,"byteOffset":18360,"componentType":5126,"count":5991,"max":[2.79683518,9.171982,7.075438],"min":[-2.409157,-1.67142987,-5.68655872],"type":"VEC3","name":"accessorPositions"},{"bufferView":1,"byteOffset":90252,"componentType":5126,"count":5991,"type":"VEC3","name":"accessorNormals"},{"bufferView":2,"byteOffset":12240,"componentType":5126,"count":5991,"type":"VEC2","name":"accessorUVs"},{"bufferView":2,"byteOffset":60168,"componentType":5126,"count":5991,"type":"VEC2","name":"accessorUV2s"},{"bufferView":0,"byteOffset":27024,"componentType":5125,"count":1293,"type":"SCALAR","name":"accessorIndices"},{"bufferView":1,"byteOffset":162144,"componentType":5126,"count":1293,"max":[2.79685044,4.93857241,5.767428],"min":[-1.92716074,-1.67142928,-5.51655865],"type":"VEC3","name":"accessorPositions"},{"bufferView":1,"byteOffset":177660,"componentType":5126,"count":1293,"type":"VEC3","name":"accessorNormals"},{"bufferView":2,"byteOffset":108096,"componentType":5126,"count":1293,"type":"VEC2","name":"accessorUVs"},{"bufferView":2,"byteOffset":118440,"componentType":5126,"count":1293,"type":"VEC2","name":"accessorUV2s"},{"bufferView":0,"byteOffset":32196,"componentType":5125,"count":7044,"type":"SCALAR","name":"accessorIndices"},{"bufferView":1,"byteOffset":193176,"componentType":5126,"count":7044,"max":[2.796851,8.482322,5.95144129],"min":[-1.92716384,-2.00942874,-5.264564],"type":"VEC3","name":"accessorPositions"},{"bufferView":1,"byteOffset":277704,"componentType":5126,"count":7044,"type":"VEC3","name":"accessorNormals"},{"bufferView":2,"byteOffset":128784,"componentType":5126,"count":7044,"type":"VEC2","name":"accessorUVs"},{"bufferView":2,"byteOffset":185136,"componentType":5126,"count":7044,"type":"VEC2","name":"accessorUV2s"},{"bufferView":0,"byteOffset":60372,"componentType":5125,"count":252,"type":"SCALAR","name":"accessorIndices"},{"bufferView":1,"byteOffset":362232,"componentType":5126,"count":252,"max":[0.225869328,7.310072,3.1484952],"min":[-1.87662256,-1.66142881,-2.4616127],"type":"VEC3","name":"accessorPositions"},{"bufferView":1,"byteOffset":365256,"componentType":5126,"count":252,"type":"VEC3","name":"accessorNormals"},{"bufferView":2,"byteOffset":241488,"componentType":5126,"count":252,"type":"VEC2","name":"accessorUVs"},{"bufferView":2,"byteOffset":243504,"componentType":5126,"count":252,"type":"VEC2","name":"accessorUV2s"},{"bufferView":0,"byteOffset":61380,"componentType":5125,"count":1758,"type":"SCALAR","name":"accessorIndices"},{"bufferView":1,"byteOffset":368280,"componentType":5126,"count":1758,"max":[2.79685926,0.678571165,2.132486],"min":[0.5227258,-1.6714288,-1.44751275],"type":"VEC3","name":"accessorPositions"},{"bufferView":1,"byteOffset":389376,"componentType":5126,"count":1758,"type":"VEC3","name":"accessorNormals"},{"bufferView":2,"byteOffset":245520,"componentType":5126,"count":1758,"type":"VEC2","name":"accessorUVs"},{"bufferView":2,"byteOffset":259584,"componentType":5126,"count":1758,"type":"VEC2","name":"accessorUV2s"},{"bufferView":0,"byteOffset":68412,"componentType":5125,"count":73635,"type":"SCALAR","name":"accessorIndices"},{"bufferView":1,"byteOffset":410472,"componentType":5126,"count":73635,"max":[2.796859,6.14557171,6.203446],"min":[-1.91715741,-1.01422524,-5.18306255],"type":"VEC3","name":"accessorPositions"},{"bufferView":1,"byteOffset":1294092,"componentType":5126,"count":73635,"type":"VEC3","name":"accessorNormals"},{"bufferView":2,"byteOffset":273648,"componentType":5126,"count":73635,"type":"VEC2","name":"accessorUVs"},{"bufferView":2,"byteOffset":862728,"componentType":5126,"count":73635,"type":"VEC2","name":"accessorUV2s"},{"bufferView":0,"byteOffset":362952,"componentType":5125,"count":834,"type":"SCALAR","name":"accessorIndices"},{"bufferView":1,"byteOffset":2177712,"componentType":5126,"count":834,"max":[2.796859,4.058573,2.026486],"min":[-1.91715848,-1.67142844,-1.33961451],"type":"VEC3","name":"accessorPositions"},{"bufferView":1,"byteOffset":2187720,"componentType":5126,"count":834,"type":"VEC3","name":"accessorNormals"},{"bufferView":2,"byteOffset":1451808,"componentType":5126,"count":834,"type":"VEC2","name":"accessorUVs"},{"bufferView":2,"byteOffset":1458480,"componentType":5126,"count":834,"type":"VEC2","name":"accessorUV2s"},{"bufferView":0,"byteOffset":366288,"componentType":5125,"count":702,"type":"SCALAR","name":"accessorIndices"},{"bufferView":1,"byteOffset":2197728,"componentType":5126,"count":702,"max":[2.79683638,8.482322,5.95144033],"min":[-2.409157,-2.00942874,-5.264564],"type":"VEC3","name":"accessorPositions"},{"bufferView":1,"byteOffset":2206152,"componentType":5126,"count":702,"type":"VEC3","name":"accessorNormals"},{"bufferView":2,"byteOffset":1465152,"componentType":5126,"count":702,"type":"VEC2","name":"accessorUVs"},{"bufferView":2,"byteOffset":1470768,"componentType":5126,"count":702,"type":"VEC2","name":"accessorUV2s"},{"bufferView":0,"byteOffset":369096,"componentType":5125,"count":906,"type":"SCALAR","name":"accessorIndices"},{"bufferView":1,"byteOffset":2214576,"componentType":5126,"count":906,"max":[2.79683638,9.252721,5.95144129],"min":[-2.40916014,-2.00942874,-5.264564],"type":"VEC3","name":"accessorPositions"},{"bufferView":1,"byteOffset":2225448,"componentType":5126,"count":906,"type":"VEC3","name":"accessorNormals"},{"bufferView":2,"byteOffset":1476384,"componentType":5126,"count":906,"type":"VEC2","name":"accessorUVs"},{"bufferView":2,"byteOffset":1483632,"componentType":5126,"count":906,"type":"VEC2","name":"accessorUV2s"},{"bufferView":0,"byteOffset":372720,"componentType":5125,"count":12,"type":"SCALAR","name":"accessorIndices"},{"bufferView":1,"byteOffset":2236320,"componentType":5126,"count":12,"max":[-0.1839067,1.62857306,6.939438],"min":[-1.20640671,1.62857234,5.733695],"type":"VEC3","name":"accessorPositions"},{"bufferView":1,"byteOffset":2236464,"componentType":5126,"count":12,"type":"VEC3","name":"accessorNormals"},{"bufferView":2,"byteOffset":1490880,"componentType":5126,"count":12,"type":"VEC2","name":"accessorUVs"},{"bufferView":2,"byteOffset":1490976,"componentType":5126,"count":12,"type":"VEC2","name":"accessorUV2s"},{"bufferView":0,"byteOffset":372768,"componentType":5125,"count":264,"type":"SCALAR","name":"accessorIndices"},{"bufferView":1,"byteOffset":2236608,"componentType":5126,"count":264,"max":[2.79683518,9.252721,5.95143652],"min":[-2.409157,7.925572,-5.264564],"type":"VEC3","name":"accessorPositions"},{"bufferView":1,"byteOffset":2239776,"componentType":5126,"count":264,"type":"VEC3","name":"accessorNormals"},{"bufferView":2,"byteOffset":1491072,"componentType":5126,"count":264,"type":"VEC2","name":"accessorUVs"},{"bufferView":2,"byteOffset":1493184,"componentType":5126,"count":264,"type":"VEC2","name":"accessorUV2s"},{"bufferView":0,"byteOffset":373824,"componentType":5125,"count":30,"type":"SCALAR","name":"accessorIndices"},{"bufferView":1,"byteOffset":2242944,"componentType":5126,"count":30,"max":[1.1450069,-0.737679362,0.6298982],"min":[0.640183568,-0.7414293,0.05507492],"type":"VEC3","name":"accessorPositions"},{"bufferView":1,"byteOffset":2243304,"componentType":5126,"count":30,"type":"VEC3","name":"accessorNormals"},{"bufferView":2,"byteOffset":1495296,"componentType":5126,"count":30,"type":"VEC2","name":"accessorUVs"},{"bufferView":2,"byteOffset":1495536,"componentType":5126,"count":30,"type":"VEC2","name":"accessorUV2s"},{"bufferView":0,"byteOffset":373944,"componentType":5125,"count":16410,"type":"SCALAR","name":"accessorIndices"},{"bufferView":1,"byteOffset":2243664,"componentType":5126,"count":16410,"max":[2.79681778,2.475572,1.90335572],"min":[-1.64391673,-1.53043377,-1.089634],"type":"VEC3","name":"accessorPositions"},{"bufferView":1,"byteOffset":2440584,"componentType":5126,"count":16410,"type":"VEC3","name":"accessorNormals"},{"bufferView":2,"byteOffset":1495776,"componentType":5126,"count":16410,"type":"VEC2","name":"accessorUVs"},{"bufferView":2,"byteOffset":1627056,"componentType":5126,"count":16410,"type":"VEC2","name":"accessorUV2s"},{"bufferView":0,"byteOffset":439584,"componentType":5125,"count":180,"type":"SCALAR","name":"accessorIndices"},{"bufferView":1,"byteOffset":2637504,"componentType":5126,"count":180,"max":[2.29109526,7.360576,6.20345163],"min":[0.706094,4.92857361,-5.516559],"type":"VEC3","name":"accessorPositions"},{"bufferView":1,"byteOffset":2639664,"componentType":5126,"count":180,"type":"VEC3","name":"accessorNormals"},{"bufferView":2,"byteOffset":1758336,"componentType":5126,"count":180,"type":"VEC2","name":"accessorUVs"},{"bufferView":2,"byteOffset":1759776,"componentType":5126,"count":180,"type":"VEC2","name":"accessorUV2s"},{"bufferView":0,"byteOffset":440304,"componentType":5123,"count":612,"type":"SCALAR","name":"accessorIndices"},{"bufferView":1,"byteOffset":2641824,"componentType":5126,"count":612,"max":[2.24109483,7.31088972,6.243446],"min":[-1.17640567,-1.471571,-5.55655766],"type":"VEC3","name":"accessorPositions"},{"bufferView":1,"byteOffset":2649168,"componentType":5126,"count":612,"type":"VEC3","name":"accessorNormals"},{"bufferView":2,"byteOffset":1761216,"componentType":5126,"count":612,"type":"VEC2","name":"accessorUVs"},{"bufferView":2,"byteOffset":1766112,"componentType":5126,"count":612,"type":"VEC2","name":"accessorUV2s"},{"bufferView":0,"byteOffset":441528,"componentType":5123,"count":540,"type":"SCALAR","name":"accessorIndices"},{"bufferView":1,"byteOffset":2656512,"componentType":5126,"count":540,"max":[0.8493524,0.858735,0.8353683],"min":[-0.8493523,-0.858735,-0.854030848],"type":"VEC3","name":"accessorPositions"},{"bufferView":1,"byteOffset":2662992,"componentType":5126,"count":540,"type":"VEC3","name":"accessorNormals"},{"bufferView":2,"byteOffset":1771008,"componentType":5126,"count":540,"type":"VEC2","name":"accessorUVs"}],"bufferViews":[{"buffer":0,"byteLength":442608,"name":"bufferViewScalar"},{"buffer":0,"byteOffset":442608,"byteLength":2669472,"byteStride":12,"name":"bufferViewFloatVec3"},{"buffer":0,"byteOffset":3112080,"byteLength":1775328,"byteStride":8,"name":"bufferViewFloatVec2"}],"buffers":[{"uri":"townhouse01.bin","byteLength":4887408}],"materials":[{"pbrMetallicRoughness":{"baseColorTexture":{"index":0},"metallicFactor":0.0},"emissiveTexture":{"index":0},"emissiveFactor":[1.0,1.0,1.0],"name":"HouseBaked"},{"pbrMetallicRoughness":{"baseColorTexture":{"index":0},"roughnessFactor":0.0},"emissiveTexture":{"index":0},"emissiveFactor":[1.0,1.0,1.0],"name":"DarkMetal"},{"pbrMetallicRoughness":{"baseColorTexture":{"index":0},"roughnessFactor":0.0},"emissiveTexture":{"index":0},"emissiveFactor":[1.0,1.0,1.0],"name":"KitchenColour"},{"pbrMetallicRoughness":{"baseColorTexture":{"index":0},"roughnessFactor":0.0},"emissiveTexture":{"index":0},"emissiveFactor":[1.0,1.0,1.0],"name":"Chrome"},{"pbrMetallicRoughness":{"baseColorTexture":{"index":0},"roughnessFactor":0.0},"emissiveTexture":{"index":0},"emissiveFactor":[1.0,1.0,1.0],"name":"Roof"},{"pbrMetallicRoughness":{"baseColorTexture":{"index":0},"roughnessFactor":0.0},"emissiveTexture":{"index":0},"emissiveFactor":[1.0,1.0,1.0],"name":"Ceramic"},{"pbrMetallicRoughness":{"baseColorFactor":[0.0503597148,0.0503597148,0.0503597148,1.0],"metallicFactor":0.0,"roughnessFactor":0.0},"name":"glass"}],"textures":[{"sampler":0,"source":0,"name":"G1_Floor_Slab_VRayCompleteMap.png"}],"images":[{"uri":"./G1_Floor_Slab_VRayCompleteMap.png"}],"samplers":[{"magFilter":9729,"minFilter":9987}]}