{"asset":{"version":"2.0","generator":"babylon.js glTF exporter for 3dsmax 2021 v20200618.4"},"scene":0,"scenes":[{"nodes":[0,4,5]}],"nodes":[{"children":[1,2,3],"translation":[6.10351549E-07,5.63107347,0.0],"name":"TownHouse"},{"mesh":0,"translation":[-0.997839332,-3.62164545,-0.6944397],"name":"G1_Floor_Slab"},{"mesh":1,"translation":[-0.997839332,-3.62164545,-0.6944397],"name":"Glass"},{"mesh":2,"translation":[23.3977852,12.7890158,-14.19111],"name":"sun"},{"translation":[4.739702,0.0,0.0527807623],"name":"sun.Target"},{"name":"Default light"}],"meshes":[{"primitives":[{"attributes":{"POSITION":1,"NORMAL":2,"TEXCOORD_0":3,"TEXCOORD_1":4},"indices":0,"material":0}],"name":"G1_Floor_Slab"},{"primitives":[{"attributes":{"POSITION":6,"NORMAL":7,"TEXCOORD_0":8,"TEXCOORD_1":9},"indices":5,"material":1}],"name":"Glass"},{"primitives":[{"attributes":{"POSITION":11,"NORMAL":12,"TEXCOORD_0":13},"indices":10}],"name":"sun"}],"accessors":[{"bufferView":0,"componentType":5125,"count":110112,"type":"SCALAR","name":"accessorIndices"},{"bufferView":1,"componentType":5126,"count":110112,"max":[2.79685926,9.252721,7.075438],"min":[-2.40916014,-2.00942874,-5.68655872],"type":"VEC3","name":"accessorPositions"},{"bufferView":1,"byteOffset":1321344,"componentType":5126,"count":110112,"type":"VEC3","name":"accessorNormals"},{"bufferView":2,"componentType":5126,"count":110112,"type":"VEC2","name":"accessorUVs"},{"bufferView":2,"byteOffset":880896,"componentType":5126,"count":110112,"type":"VEC2","name":"accessorUV2s"},{"bufferView":0,"byteOffset":440448,"componentType":5123,"count":576,"type":"SCALAR","name":"accessorIndices"},{"bufferView":1,"byteOffset":2642688,"componentType":5126,"count":576,"max":[2.24109483,7.31088972,6.243446],"min":[-1.17640567,-1.471571,-5.55655766],"type":"VEC3","name":"accessorPositions"},{"bufferView":1,"byteOffset":2649600,"componentType":5126,"count":576,"type":"VEC3","name":"accessorNormals"},{"bufferView":2,"byteOffset":1761792,"componentType":5126,"count":576,"type":"VEC2","name":"accessorUVs"},{"bufferView":2,"byteOffset":1766400,"componentType":5126,"count":576,"type":"VEC2","name":"accessorUV2s"},{"bufferView":0,"byteOffset":441600,"componentType":5123,"count":540,"type":"SCALAR","name":"accessorIndices"},{"bufferView":1,"byteOffset":2656512,"componentType":5126,"count":540,"max":[0.8493524,0.858735,0.8353683],"min":[-0.8493523,-0.858735,-0.854030848],"type":"VEC3","name":"accessorPositions"},{"bufferView":1,"byteOffset":2662992,"componentType":5126,"count":540,"type":"VEC3","name":"accessorNormals"},{"bufferView":2,"byteOffset":1771008,"componentType":5126,"count":540,"type":"VEC2","name":"accessorUVs"}],"bufferViews":[{"buffer":0,"byteLength":442680,"name":"bufferViewScalar"},{"buffer":0,"byteOffset":442680,"byteLength":2669472,"byteStride":12,"name":"bufferViewFloatVec3"},{"buffer":0,"byteOffset":3112152,"byteLength":1775328,"byteStride":8,"name":"bufferViewFloatVec2"}],"buffers":[{"uri":"townhouse01.bin","byteLength":4887480}],"materials":[{"pbrMetallicRoughness":{"baseColorTexture":{"index":0},"metallicFactor":0.0,"roughnessFactor":0.9},"emissiveTexture":{"index":0},"emissiveFactor":[1.0,1.0,1.0],"name":"Material #26"},{"pbrMetallicRoughness":{"baseColorTexture":{"index":0},"metallicFactor":0.0},"name":"Material #12"}],"textures":[{"sampler":0,"source":0,"name":"G1_Floor_Slab_VRayCompleteMap.png"}],"images":[{"uri":"./G1_Floor_Slab_VRayCompleteMap.png"}],"samplers":[{"magFilter":9729,"minFilter":9987}]}